<?xml version="1.0" encoding="iso-8859-1"?>
<!-- Uploaded to: SVG Repo, www.svgrepo.com, Generator: SVG Repo Mixer Tools -->
<svg height="100" width="100" version="1.1" id="Layer_1" xmlns="http://www.w3.org/2000/svg" xmlns:xlink="http://www.w3.org/1999/xlink" 
	 viewBox="0 0 496.8 496.8" xml:space="preserve">
<g>
	<path style="fill:#272B2B;" d="M110.8,388.8c0-9.6-7.2-16.8-16-17.6L93.2,356c0-10.4-8-19.2-18.4-19.2h-12H47.6
		c-10.4,0-18.4,8.8-18.4,19.2l-1.6,15.2c-7.2,2.4-13.6,9.6-13.6,17.6c0,7.2,4,13.6,10.4,16l-3.2,32.8c0,8.8,6.4,15.2,15.2,16.8
		c0.8,1.6,0.8,2.4,0,2.4h-0.8c-4,0-11.2,5.6-11.2,9.6v22.4h12h14.4h25.6h14.4h5.6v-22.4c0-4-1.6-9.6-5.6-9.6h-1.6
		c0,0-0.8-0.8-1.6-1.6c8.8-1.6,15.2-8,15.2-17.6l-4-32C106,403.2,110.8,396.8,110.8,388.8z"/>
	<path style="fill:#272B2B;" d="M455.6,418.4c0-7.2-5.6-12.8-12-13.6L442,392c0-7.2-6.4-15.2-13.6-15.2h-8.8h-11.2
		c-7.2,0-13.6,8-13.6,15.2l-0.8,12c-5.6,1.6-9.6,7.2-9.6,13.6c0,5.6,3.2,10.4,7.2,12l-2.4,24.8c0,6.4,4.8,13.6,11.2,14.4
		c0.8,0.8,0,4,0,4h-0.8c-3.2,0-7.2,0-7.2,3.2v20.8h8h10.4h18.4h11.2h8V476c0-3.2-4.8-3.2-7.2-3.2h-0.8c0,0-0.8-2.4-0.8-3.2
		c6.4-0.8,11.2-7.2,11.2-13.6l-3.2-24C452.4,428.8,455.6,424,455.6,418.4z"/>
</g>
<g>
	<path style="fill:#606868;" d="M208.4,496.8V416c0-13.6-12-23.2-24.8-23.2h-24.8c-13.6,0-21.6,9.6-21.6,23.2v80.8H208.4z"/>
	<path style="fill:#606868;" d="M360.4,496.8V416c0-13.6-8.8-23.2-21.6-23.2H314c-13.6,0-24.8,9.6-24.8,23.2v80.8H360.4z"/>
</g>
<path style="fill:#4A4F4F;" d="M336.4,496.8V395.2c0-13.6-12-26.4-25.6-26.4H186c-13.6,0-25.6,12.8-25.6,26.4v101.6H336.4z"/>
<path style="fill:#383D3D;" d="M336.4,496.8V395.2c0-13.6-12-26.4-25.6-26.4H186c-13.6,0-25.6,12.8-25.6,26.4"/>
<path style="fill:#4A4F4F;" d="M210,163.2c0,32.8-26.4,59.2-59.2,59.2S91.6,196,91.6,163.2S118,104,150.8,104S210,130.4,210,163.2z"
	/>
<path style="fill:#606868;" d="M187.6,163.2c0,20-16.8,36.8-36.8,36.8S114,183.2,114,163.2s16.8-36.8,36.8-36.8
	C171.6,126.4,187.6,143.2,187.6,163.2z"/>
<circle style="fill:#4A4F4F;" cx="346" cy="163.2" r="59.2"/>
<path style="fill:#606868;" d="M382.8,163.2c0,20-16.8,36.8-36.8,36.8s-36.8-16.8-36.8-36.8s16.8-36.8,36.8-36.8
	C366,126.4,382.8,143.2,382.8,163.2z"/>
<path style="fill:#697070;" d="M381.2,324.8c0,32.8-26.4,60-59.2,60H175.6c-32.8,0-59.2-28-59.2-60.8l24-264.8
	c0-32.8,26.4-59.2,59.2-59.2h87.2C319.6,0,346,26.4,346,59.2L381.2,324.8z"/>
<path style="fill:#6F7677;" d="M248.4,0.8h-49.6c-32.8,0-59.2,25.6-59.2,58.4l-24,265.6c0,32.8,26.4,60,59.2,60h73.6V0.8z"/>
<path style="fill:#818889;" d="M139.6,58.4l-24,264.8c0,32.8,26.4,59.2,59.2,59.2"/>
<path style="fill:#5A6263;" d="M376.4,325.6c0,32.8-22.4,59.2-55.2,59.2H175.6c-32.8,0-59.2-27.2-59.2-60"/>
<path style="fill:#697070;" d="M115.6,324.8c0,32.8,26.4,60,59.2,60l-6.4-60H115.6z"/>
<path style="fill:#606868;" d="M139.6,59.2c0-32.8,26.4-58.4,59.2-58.4H286c32.8,0,59.2,25.6,59.2,58.4l36,265.6
	c0,32.8-26.4,60-59.2,60"/>
<path style="fill:#4A4F4F;" d="M248.4,0.8h-49.6c-32.8,0-59.2,25.6-59.2,58.4l108.8,193.6V0.8z"/>
<path style="fill:#737A7A;" d="M296.4,288.8c-5.6-16-9.6-46.4-9.6-80c0-40,5.6-72,13.6-88h-104c8,16,13.6,48,13.6,88
	c0,33.6-4,64-9.6,80H296.4z"/>
<path style="fill:#575E5E;" d="M248.4,288.8v-168h-52c8,16,13.6,48,13.6,88c0,33.6-4,64-9.6,80H248.4z"/>
<path style="fill:#4D5454;" d="M288.4,328l32.8,56.8c32.8,0,59.2-24.8,59.2-56.8H288.4z"/>
<path style="fill:#575E5E;" d="M345.2,61.6l36,263.2c0,29.6-26.4,60-59.2,60"/>
<path style="fill:#454C4C;" d="M316.4,324.8l5.6,60c32.8,0,60.8-24.8,59.2-60H316.4z"/>
<path style="fill:#737A7A;" d="M320.4,328.8c0,4.8-3.2,8-8,8h-128c-4.8,0-8-3.2-8-8l0,0c0-4.8,3.2-8,8-8h128
	C317.2,320.8,320.4,324,320.4,328.8L320.4,328.8z"/>
<path style="fill:#383D3D;" d="M320.4,328.8c0,4.8-3.2,8-8.8,8H185.2c-4.8,0-8.8-3.2-8.8-8l0,0c0-4.8,4-8,8.8-8h126.4
	C317.2,320.8,320.4,324,320.4,328.8L320.4,328.8z"/>
<g>
	<path style="fill:#4A4F4F;" d="M320.4,328.8L320.4,328.8c0,5.6-4,8-8.8,8H185.2c-4.8,0-8-1.6-8.8-8l0,0"/>
	<path style="fill:#4A4F4F;" d="M315.6,128.8c-11.2-24-36.8-45.6-67.2-45.6s-56.8,21.6-67.2,45.6H315.6z"/>
</g>
<path style="fill:#3F4444;" d="M248.4,83.2c-32,0-56.8,21.6-67.2,45.6h67.2V83.2z"/>
<polygon style="fill:#6F7677;" points="320.4,128.8 320.4,128.8 176.4,128.8 176.4,128.8 176.4,128.8 176.4,128.8 320.4,128.8 "/>
<path style="fill:#4A4F4F;" d="M295.6,288.8c-7.2-8-25.6-17.6-47.2-17.6s-39.2,9.6-47.2,17.6H295.6z"/>
<path style="fill:#3F4444;" d="M248.4,271.2c-24,0-39.2,9.6-47.2,17.6h47.2V271.2z"/>
<path style="fill:#6F7677;" d="M297.2,292.8l-0.8,4h-96c-0.8,0-1.6-4-1.6-4l0,0c0,0,0.8-4,1.6-4h96
	C297.2,288.8,297.2,292.8,297.2,292.8L297.2,292.8z"/>
<path style="fill:#A5D647;" d="M496.4,484.8c0,6.4-5.6,12-12,12h-472c-6.4,0-12-5.6-12-12l0,0c0-6.4,5.6-12,12-12h472
	C490.8,472.8,496.4,478.4,496.4,484.8L496.4,484.8z"/>
<polygon style="fill:#6FAF00;" points="136.4,472.8 136.4,496.8 162,496.8 207.6,496.8 289.2,496.8 334.8,496.8 360.4,496.8 
	360.4,472.8 "/>
</svg>