<?xml version="1.0" encoding="iso-8859-1"?>
<!-- Uploaded to: SVG Repo, www.svgrepo.com, Generator: SVG Repo Mixer Tools -->
<svg version="1.1" id="Layer_1" xmlns="http://www.w3.org/2000/svg" xmlns:xlink="http://www.w3.org/1999/xlink" 
	height="100" width="100" viewBox="0 0 512 512" xml:space="preserve">
<g>
	<rect x="140.016" y="391.314" style="fill:#A54E31;" width="225.782" height="29.257"/>
	<rect x="140.016" y="309.812" style="fill:#A54E31;" width="225.782" height="25.078"/>
	<rect x="140.016" y="334.89" style="fill:#A54E31;" width="225.782" height="25.078"/>
</g>
<circle style="fill:#FFAE18;" cx="91.951" cy="69.486" r="36.571"/>
<g>
	<circle style="fill:#348E00;" cx="61.649" cy="371.461" r="51.2"/>
	<path style="fill:#348E00;" d="M424.229,367.282L424.229,367.282c-42.704,0-77.322-34.619-77.322-77.322V164.571
		c0-42.704,34.619-77.322,77.322-77.322l0,0c42.704,0,77.322,34.619,77.322,77.322v125.388
		C501.551,332.663,466.932,367.282,424.229,367.282z"/>
</g>
<path d="M178.179,118.298c11.618,0,21.071,9.452,21.071,21.071c0,5.771,4.679,10.449,10.449,10.449s10.449-4.678,10.449-10.449
	c0-11.619,9.453-21.071,21.071-21.071c5.77,0,10.449-4.678,10.449-10.449S246.99,97.4,241.22,97.4
	c-12.55,0-23.823,5.544-31.52,14.304c-7.698-8.759-18.97-14.304-31.52-14.304c-5.77,0-10.449,4.678-10.449,10.449
	S172.409,118.298,178.179,118.298z"/>
<path d="M115.138,173.302c-5.77,0-10.449,4.678-10.449,10.449s4.679,10.449,10.449,10.449c11.618,0,21.071,9.452,21.071,21.071
	c0,5.771,4.679,10.449,10.449,10.449c5.77,0,10.449-4.678,10.449-10.449c0-11.619,9.453-21.071,21.071-21.071
	c5.77,0,10.449-4.678,10.449-10.449s-4.679-10.449-10.449-10.449c-12.55,0-23.823,5.544-31.52,14.304
	C138.962,178.846,127.689,173.302,115.138,173.302z"/>
<path d="M91.951,116.506c25.927,0,47.02-21.093,47.02-47.02s-21.093-47.02-47.02-47.02s-47.02,21.093-47.02,47.02
	S66.024,116.506,91.951,116.506z M91.951,43.363c14.404,0,26.122,11.719,26.122,26.122s-11.719,26.122-26.122,26.122
	S65.829,83.89,65.829,69.486S77.547,43.363,91.951,43.363z"/>
<path d="M424.229,76.8c-48.397,0-87.771,39.374-87.771,87.771v125.388c0,3.178,0.18,6.313,0.511,9.404h-4.691v-4.719
	c0-5.771-4.679-10.449-10.449-10.449s-10.449,4.678-10.449,10.449v4.719H194.417v-4.719c0-5.771-4.679-10.449-10.449-10.449
	s-10.449,4.678-10.449,10.449v4.719h-33.503c-5.77,0-10.449,4.678-10.449,10.449v25.078v25.078c0,5.771,4.679,10.449,10.449,10.449
	h33.503v10.449h-33.503c-5.77,0-10.449,4.678-10.449,10.449v29.257c0,5.771,4.679,10.449,10.449,10.449h19.919v37.616H72.098v-36.43
	c29.031-4.98,51.2-30.315,51.2-60.745c0-33.994-27.656-61.649-61.649-61.649S0,337.468,0,371.461
	c0,30.431,22.169,55.765,51.2,60.745v36.43h-6.811c-5.77,0-10.449,4.678-10.449,10.449s4.679,10.449,10.449,10.449h312.966
	c5.77,0,10.449-4.678,10.449-10.449s-4.679-10.449-10.449-10.449h-11.494V431.02h19.94c5.77,0,10.449-4.678,10.449-10.449v-29.257
	c0-5.771-4.679-10.449-10.449-10.449h-33.523v-10.449h14.629c5.77,0,10.449-4.678,10.449-10.449c0-5.771-4.679-10.449-10.449-10.449
	H150.465v-4.18H355.82h0.375c14.03,17.202,34.438,28.989,57.584,31.748v91.55h-18.384c-5.77,0-10.449,4.678-10.449,10.449
	s4.679,10.449,10.449,10.449h72.214c5.77,0,10.449-4.678,10.449-10.449s-4.679-10.449-10.449-10.449h-32.932v-91.55
	C478.164,371.902,512,334.819,512,289.959V164.571C512,116.174,472.625,76.8,424.229,76.8z M20.898,371.461
	c0-22.471,18.28-40.751,40.751-40.751s40.751,18.28,40.751,40.751c0,18.859-12.879,34.761-30.302,39.387v-14.02l16.641-16.642
	c4.08-4.08,4.08-10.697,0-14.777c-4.081-4.08-10.698-4.08-14.778,0l-12.312,12.313l-13.835-13.837c-4.08-4.08-10.695-4.08-14.778,0
	c-4.08,4.08-4.08,10.697,0,14.777L51.2,396.828v14.02C33.777,406.222,20.898,390.32,20.898,371.461z M180.833,468.637V431.02h6.269
	v37.616H180.833z M297.796,431.02v37.616h-89.796V431.02H297.796z M324.963,468.637h-6.269V431.02h6.269V468.637z M355.352,410.122
	H150.465v-8.359h204.887V410.122z M311.38,380.865H194.417v-10.449H311.38V380.865z M150.465,320.261h191.388
	c0.52,1.412,1.08,2.803,1.671,4.18H150.465V320.261z M491.102,289.959c0,33.32-24.497,61.02-56.424,66.052V312.56l27.843-29.726
	c3.944-4.212,3.728-10.824-0.484-14.769c-4.21-3.944-10.824-3.728-14.77,0.483l-12.59,13.441v-33.618l27.843-29.726
	c3.944-4.212,3.728-10.824-0.484-14.77c-4.21-3.944-10.824-3.728-14.77,0.483l-12.59,13.443v-18.225
	c0-5.771-4.679-10.449-10.449-10.449s-10.449,4.678-10.449,10.449v47.05l-10.757-11.484c-3.946-4.212-10.559-4.427-14.77-0.483
	c-4.212,3.944-4.428,10.558-0.484,14.769l26.011,27.769v78.815c-31.928-5.032-56.424-32.732-56.424-66.052V164.57
	c0-36.874,29.999-66.873,66.873-66.873s66.873,29.999,66.873,66.873V289.959z"/>
<path d="M501.551,468.636h-0.137c-5.77,0-10.449,4.678-10.449,10.449c0,5.771,4.679,10.449,10.449,10.449h0.137
	c5.77,0,10.449-4.678,10.449-10.449C512,473.314,507.321,468.636,501.551,468.636z"/>
<path d="M10.586,468.637h-0.137C4.679,468.637,0,473.315,0,479.086s4.679,10.449,10.449,10.449h0.137
	c5.77,0,10.449-4.678,10.449-10.449S16.356,468.637,10.586,468.637z"/>
</svg>